<svg width="337" height="57" viewBox="0 0 337 57" fill="none" xmlns="http://www.w3.org/2000/svg">
<path d="M0 55.3315V8.67522H9.21875C9.21875 8.67522 20.4688 37.0815 9.21875 47.2065C-2.03125 57.3315 28.9375 47.2065 28.9375 47.2065V55.3315H0Z" fill="black"/>
<path d="M38.4375 20.3315H56.5625V48.3002H67.9375V55.3315H36V48.3002H47.4062C47.4062 48.3002 39.4688 35.3315 47.4062 27.3627C55.3438 19.3939 38.4375 27.3627 38.4375 27.3627V20.3315ZM47.4062 3.30022C40.8438 -2.73103 56.5625 3.30022 56.5625 3.30022V13.9877H47.4062C47.4062 13.9877 53.9688 9.33147 47.4062 3.30022Z" fill="black"/>
<path d="M106.125 20.3315L95 55.3315H83.7188L72.5938 20.3315H81.875C81.875 20.3315 89.2188 63.2377 89.3438 47.644C89.4688 32.0502 96.8438 20.3315 96.8438 20.3315H106.125Z" fill="black"/>
<path d="M143.094 53.6127C140.969 54.4877 138.802 55.144 136.594 55.5815C134.385 56.019 132.052 56.2377 129.594 56.2377C123.74 56.2377 119.26 54.6752 116.156 51.5502C113.073 48.4044 111.531 43.8835 111.531 37.9877C111.531 32.2794 113.021 27.769 116 24.4565C118.979 21.144 123.042 19.4877 128.188 19.4877C133.375 19.4877 137.396 21.0294 140.25 24.1127C143.125 27.1752 144.562 31.4981 144.562 37.0815C144.562 37.0815 155.656 37.394 144.562 40.8002C133.469 44.2065 120.844 40.8002 120.844 40.8002C120.865 43.5502 121.677 45.6023 123.281 46.9565C124.885 48.3106 127.281 48.9877 130.469 48.9877C132.573 48.9877 134.646 48.6856 136.688 48.0815C138.729 47.4773 140.865 46.519 143.094 45.2065V53.6127ZM135.344 33.9252C135.302 31.5085 134.677 29.6856 133.469 28.4565C132.281 27.2065 130.521 26.5815 128.188 26.5815C126.083 26.5815 124.406 27.2273 123.156 28.519C121.906 29.7898 121.167 31.6023 120.938 33.9565L135.344 33.9252Z" fill="black"/>
<path d="M189.188 53.019V42.3315C190.979 44.1648 192.885 45.5606 194.906 46.519C196.948 47.4773 199 47.9565 201.062 47.9565C203.479 47.9565 205.25 47.3523 206.375 46.144C207.5 44.9356 208.062 43.0085 208.062 40.3627V16.8002C208.062 16.8002 202.594 12.1752 196.781 16.8002C190.969 21.4252 196.781 8.67522 196.781 8.67522H217.281V40.3627C217.281 46.0502 216.083 50.1231 213.688 52.5815C211.312 55.019 207.385 56.2377 201.906 56.2377C199.927 56.2377 197.854 55.9669 195.688 55.4252C193.542 54.8835 191.375 54.0815 189.188 53.019Z" fill="black"/>
<path d="M240.281 34.8627C217.281 36.5815 232.49 31.2377 230.844 29.3002C229.198 27.3419 228.375 24.7169 228.375 21.4252C228.375 17.196 229.729 13.8731 232.438 11.4565C235.146 9.03981 238.865 7.83147 243.594 7.83147C245.74 7.83147 247.885 8.08147 250.031 8.58147C252.177 9.06064 254.302 9.77939 256.406 10.7377V19.7377C254.427 18.3419 252.417 17.2794 250.375 16.5502C248.333 15.8211 246.312 15.4565 244.312 15.4565C242.083 15.4565 240.375 15.9044 239.188 16.8002C238 17.6961 237.406 18.9773 237.406 20.644C237.406 21.9356 237.833 23.0085 238.688 23.8627C239.562 24.696 241.375 25.6231 244.125 26.644L248.094 28.144C251.844 29.519 254.604 31.3419 256.375 33.6127C258.146 35.8835 259.031 38.7481 259.031 42.2065C259.031 46.9148 257.635 50.4356 254.844 52.769C252.073 55.0815 247.875 56.2377 242.25 56.2377C239.938 56.2377 237.615 55.9565 235.281 55.394C232.969 54.8523 230.729 54.0398 228.562 52.9565V43.4252C231.021 45.1752 233.396 46.4773 235.688 47.3315C238 48.1856 240.281 48.6127 242.531 48.6127C244.802 48.6127 246.562 48.1023 247.812 47.0815C249.062 46.0398 249.688 44.5919 249.688 42.7377C249.688 41.3419 249.271 40.1231 248.438 39.0815C247.604 38.019 246.396 37.1856 244.812 36.5815C244.812 36.5815 263.281 33.144 240.281 34.8627Z" fill="black"/>
<path d="M282.156 16.1127C279.802 16.1127 278.083 17.3731 277 19.894C275.917 22.394 275.375 26.446 275.375 32.0502C275.375 37.6335 275.917 41.6856 277 44.2065C278.083 46.7065 279.802 47.9565 282.156 47.9565C284.531 47.9565 286.26 46.7065 287.344 44.2065C288.427 41.6856 288.969 37.6335 288.969 32.0502C288.969 26.446 262.969 62.3315 287.344 19.894C311.719 -22.5436 284.531 16.1127 282.156 16.1127ZM265.781 32.0502C265.781 24.071 267.156 18.0398 269.906 13.9565C272.677 9.87314 276.76 7.83147 282.156 7.83147C287.573 7.83147 291.656 9.87314 294.406 13.9565C297.177 18.0398 298.562 24.071 298.562 32.0502C298.562 40.0085 297.177 46.0294 294.406 50.1127C291.656 54.196 287.573 56.2377 282.156 56.2377C276.76 56.2377 272.677 54.196 269.906 50.1127C267.156 46.0294 265.781 40.0085 265.781 32.0502Z" fill="black"/>
<path d="M305.188 8.67522H315.094C315.094 8.67522 319.633 37.8315 328.094 42.5815C336.554 47.3314 328.094 8.67522 328.094 8.67522H336.219V55.3315H326.375L313.312 21.4252V55.3315H305.188V8.67522Z" fill="black"/>
</svg>
